# xmcd
#
# Track frame offsets: 
#        150
#        17160
#        29837
#        43172
#        62969
#        71806
#        87058
#        107133
#        124311
#        144648
#        155646
#        178089
#        188669
#
# Disc length: 2815 seconds
#
# Revision: 0
# Processed by: cddbd v1.5.2PL0 Copyright (c) Steve Scherf et al.
# Submitted via: ExactAudioCopy v1.0b4
#
DISCID=c40afd0d
DTITLE=Nico Wayne Toussaint - Plays James Cotton
DYEAR=2018
DGENRE=Blues
TTITLE0=No Cuttin' Loose
TTITLE1=River's Invitation
TTITLE2=One More Mile
TTITLE3=Born In Missouri
TTITLE4=Rocket 88
TTITLE5=Hot 'n' Cold
TTITLE6=Hard Time Blues
TTITLE7=Today I Started Loving You Again
TTITLE8=How Long Can A Fool Go Wrong
TTITLE9=Cotton Crop Blues
TTITLE10=Down At Your Buryin'
TTITLE11=Got To Get You Off My Mind
TTITLE12=Midnight Creeper
EXTD=
EXTT0=
EXTT1=
EXTT2=
EXTT3=
EXTT4=
EXTT5=
EXTT6=
EXTT7=
EXTT8=
EXTT9=
EXTT10=
EXTT11=
EXTT12=
PLAYORDER=
